<svg width="550" height="550" viewBox="0 0 550 550" fill="none" xmlns="http://www.w3.org/2000/svg">
<g clip-path="url(#clip0_7_41)">
<path d="M135 205.5C135 192.521 145.521 182 158.5 182H391.5C404.479 182 415 192.521 415 205.5C415 218.479 404.479 229 391.5 229H158.5C145.521 229 135 218.479 135 205.5Z" fill="#26A3E3"/>
<path d="M300 42C300 55.8071 288.807 67 275 67C261.193 67 250 55.8071 250 42C250 28.1929 261.193 17 275 17C288.807 17 300 28.1929 300 42Z" fill="#26A3E3"/>
<path d="M271 63H279V100H271V63Z" fill="#26A3E3"/>
<path d="M415 394C415 471.32 352.32 534 275 534C197.68 534 135 471.32 135 394C135 316.68 197.68 254 275 254C352.32 254 415 316.68 415 394Z" fill="#26A3E3"/>
<path d="M204 348C204 335.85 213.85 326 226 326H324C336.15 326 346 335.85 346 348V447C346 459.15 336.15 469 324 469H226C213.85 469 204 459.15 204 447V348Z" fill="white"/>
<path fill-rule="evenodd" clip-rule="evenodd" d="M197 300C184.85 300 175 309.85 175 322V478C175 490.15 184.85 500 197 500H353C365.15 500 375 490.15 375 478V322C375 309.85 365.15 300 353 300H197ZM344.149 344.255L320.651 457.282C320.098 459.95 316.968 461.16 314.76 459.555L282.684 436.267C280.736 434.853 278.081 434.928 276.217 436.448L258.432 450.945C256.368 452.633 253.258 451.692 252.468 449.15L243.323 419.741C241.302 413.241 236.385 408.042 230.008 405.662L208.214 397.528C204.973 396.314 204.945 391.739 208.177 390.494L339.114 339.982C341.89 338.909 344.754 341.34 344.149 344.255Z" fill="#26A3E3"/>
<path fill-rule="evenodd" clip-rule="evenodd" d="M312.832 364.694L250.478 403.097C248.088 404.572 246.964 407.458 247.734 410.16L254.476 433.848C254.956 435.527 257.391 435.355 257.624 433.621L259.376 420.631C259.707 418.185 260.873 415.931 262.683 414.247L314.142 366.414C315.105 365.521 313.952 364.006 312.832 364.694Z" fill="#26A3E3"/>
<path d="M385 205C385 265.751 335.751 315 275 315C214.249 315 165 265.751 165 205C165 144.249 214.249 95 275 95C335.751 95 385 144.249 385 205Z" fill="#26A3E3"/>
<path d="M175 205C175 182.909 192.909 165 215 165H335C357.091 165 375 182.909 375 205C375 227.091 357.091 245 335 245H215C192.909 245 175 227.091 175 205Z" fill="white"/>
<path d="M237 205C237 216.046 228.046 225 217 225C205.954 225 197 216.046 197 205C197 193.954 205.954 185 217 185C228.046 185 237 193.954 237 205Z" fill="#26A3E3"/>
<path d="M346 205C346 216.046 337.046 225 326 225C314.954 225 306 216.046 306 205C306 193.954 314.954 185 326 185C337.046 185 346 193.954 346 205Z" fill="#26A3E3"/>
</g>
<defs>
<clipPath id="clip0_7_41">
<rect width="550" height="550" fill="white"/>
</clipPath>
</defs>
</svg>
